<svg xmlns="http://www.w3.org/2000/svg" xmlns:xlink="http://www.w3.org/1999/xlink" width="2000" zoomAndPan="magnify" viewBox="0 0 1500 1499.999933" height="2000" preserveAspectRatio="xMidYMid meet" version="1.0"><defs><g/><clipPath id="aea73200d9"><rect x="0" width="1012" y="0" height="1500"/></clipPath><clipPath id="d0398f0fd9"><path d="M 544 304 L 1367 304 L 1367 1346 L 544 1346 Z M 544 304 " clip-rule="nonzero"/></clipPath><clipPath id="fa24fb5af6"><path d="M 332.429688 733.519531 L 1327.007812 263.027344 L 1689.738281 1029.808594 L 695.160156 1500.300781 Z M 332.429688 733.519531 " clip-rule="nonzero"/></clipPath><clipPath id="4cd075d2c4"><path d="M 332.429688 733.519531 L 1327.007812 263.027344 L 1689.738281 1029.808594 L 695.160156 1500.300781 Z M 332.429688 733.519531 " clip-rule="nonzero"/></clipPath></defs><g transform="matrix(1, 0, 0, 1, 237, 0.000000000000112861)"><g clip-path="url(#aea73200d9)"><g fill="#8197ff" fill-opacity="1"><g transform="translate(29.277519, 1202.268359)"><g><path d="M 686.96875 -189.421875 L 276.546875 -189.421875 L 198.265625 0 L -11.359375 0 L 382.625 -883.953125 L 584.671875 -883.953125 L 979.9375 0 L 765.25 0 Z M 622.5625 -344.75 L 482.390625 -683.171875 L 342.21875 -344.75 Z M 622.5625 -344.75 "/></g></g></g></g></g><g clip-path="url(#d0398f0fd9)"><g clip-path="url(#fa24fb5af6)"><g clip-path="url(#4cd075d2c4)"><path fill="#7ed957" d="M 933.492188 1185.726562 L 586.488281 1061.59375 L 544.363281 1179.34375 L 1009.121094 1345.597656 L 1366.335938 347.015625 L 1248.585938 304.894531 Z M 933.492188 1185.726562 " fill-opacity="1" fill-rule="nonzero"/></g></g></g></svg>